<svg width="24" height="24" viewBox="0 0 24 24" fill="none" xmlns="http://www.w3.org/2000/svg">
<path fill-rule="evenodd" clip-rule="evenodd" d="M18.9204 9.82616C18.9204 11.9205 18.9204 14.0149 18.9204 16.1094C18.9204 16.6796 18.9642 17.0482 18.6933 17.4696C18.5136 17.7491 18.2364 17.9983 17.796 18.0851C17.4986 18.1436 15.2797 18.1096 14.7883 18.1096C14.6898 17.7263 14.6589 17.453 14.0923 17.2934C13.7865 17.2072 13.0011 17.1978 12.6745 17.241C12.2458 17.2977 11.8991 17.5068 11.7083 17.7813C11.2114 18.4959 11.8809 19.7194 11.2165 20.3214L8.66147 21.9351C8.41501 22.0748 8.42716 21.9458 8.42671 21.9454C8.29842 21.7854 8.37932 20.7082 8.37798 20.4167C8.37389 19.5185 8.33109 19.7004 9.22673 19.7006C9.43251 19.7006 9.78248 19.7436 9.93919 19.6466C10.0967 19.5492 10.1657 19.2974 10.0233 19.1278C9.69369 18.7351 6.63274 19.3007 5.78482 18.8056C4.96846 18.329 5.09211 17.4945 5.09211 16.3859C5.09211 14.2915 5.09211 12.1971 5.09211 10.1026C5.09211 9.64951 5.01322 8.98573 5.21481 8.64017C5.92884 7.41624 7.63978 7.66241 8.80241 7.66241C10.8469 7.66241 12.8914 7.66241 14.9358 7.66241C15.5351 7.66241 17.4818 7.58836 17.9227 7.71641C19.0113 8.0325 18.9204 9.09176 18.9204 9.82598V9.82616ZM9.97993 10.0614C9.86982 9.84971 9.60282 9.62819 9.25739 9.71147C8.58449 9.87367 8.74131 10.694 8.74131 11.4065C8.74131 11.7002 8.69756 12.2176 8.81545 12.4468C8.92382 12.6575 9.19115 12.8747 9.54637 12.7954C10.2041 12.6483 10.0466 11.7784 10.0466 11.101C10.0466 10.8236 10.0889 10.2707 9.97998 10.0614L9.97993 10.0614ZM14.4786 9.71129C13.7999 9.87058 13.9602 10.6905 13.9602 11.4064C13.9602 11.7085 13.917 12.2079 14.0324 12.4483C14.3129 13.0326 15.2122 12.8774 15.2629 12.2018C15.2876 11.8717 15.2651 11.4418 15.2651 11.1009C15.2651 10.8154 15.311 10.2789 15.1983 10.0611C15.0927 9.85711 14.8221 9.63065 14.4786 9.71129ZM13.3033 14.3236C12.8636 14.7142 11.1226 14.6667 10.7429 14.3518C10.5874 14.2229 10.3914 14.0888 10.1002 14.1776C9.41349 14.3871 9.25113 15.5249 10.9823 15.8464C13.2916 16.2754 15.0195 15.2453 14.2198 14.3635C13.9832 14.1027 13.5909 14.068 13.3033 14.3236H13.3033Z" fill="white"/>
<path fill-rule="evenodd" clip-rule="evenodd" d="M9.9623 2.05126C8.72149 2.19716 7.73035 2.48403 6.77604 3.01737C5.84492 3.53772 5.07632 4.13881 4.4655 4.87037C3.86551 5.58894 3.30546 6.40701 2.92384 7.49454C2.78987 7.87651 2.51876 8.72577 2.513 9.14441C2.50415 9.77912 3.4241 9.94858 3.56355 9.18509C4.16602 5.88762 6.67078 3.44183 9.97629 3.10173C10.6376 3.0337 13.4055 3.03393 14.057 3.1062C16.5571 3.38363 18.246 4.8046 19.2381 6.21614C19.8416 7.07466 20.2088 7.98223 20.4381 9.18628C20.5847 9.95655 21.4756 9.7594 21.4871 9.18199C21.4953 8.77182 21.2033 7.85894 21.0739 7.4937C19.9882 4.42851 17.1697 2.36164 14.0259 2.04663C13.4167 1.98555 10.5533 1.98182 9.9623 2.05126Z" fill="white"/>
<path fill-rule="evenodd" clip-rule="evenodd" d="M4.05123 15.8284L4.05112 10.725C3.69118 10.7114 3.32247 10.7222 2.96193 10.7205C1.75766 10.7151 2.027 11.5057 2.027 13.2534C2.027 14.9703 1.75706 15.8427 2.92435 15.8391C3.28047 15.838 3.70384 15.8616 4.05128 15.8284H4.05123Z" fill="white"/>
<path fill-rule="evenodd" clip-rule="evenodd" d="M19.9487 15.833L21.1969 15.8462C22.1321 15.8462 21.9927 15.0357 21.9927 14.1602C21.9927 13.3054 21.99 12.4501 21.993 11.5954C21.9906 11.1156 21.8021 10.7911 21.3863 10.7413C21.0606 10.7022 20.2915 10.7193 19.9493 10.7422L19.9487 15.833Z" fill="white"/>
<path fill-rule="evenodd" clip-rule="evenodd" d="M14.2435 19.0088C14.246 17.9031 13.8659 17.8606 13.0225 17.8575C12.2361 17.8546 11.912 18.1655 12.0203 19.1782C12.1248 20.1559 12.7864 19.9892 13.5355 19.9892L17.8501 19.9893C18.6004 19.9901 19.0449 19.8956 19.5848 19.4893C20.3642 18.9029 21.1369 17.7449 20.9794 16.0182L20.2077 16C20.2004 17.0719 20.1654 17.3257 19.7252 18.0038C19.4866 18.3713 18.9418 18.8791 18.4419 18.9807C18.0584 19.0587 14.892 19.0126 14.2435 19.0089L14.2435 19.0088Z" fill="white"/>
</svg>
